<svg id="Layer_1" data-name="Layer 1" xmlns="http://www.w3.org/2000/svg" viewBox="0 0 426.169 85"><defs><style>.cls-1{fill:#fce152}.cls-2{fill:#1ca06e}</style></defs><path class="cls-1" d="M426.169 0v85h-140.11l21.58-37.13a6.483 6.483 0 001.62.69c.04.01.1.02.15.03a6.784 6.784 0 005.05-12.45l21-36.14z"/><path class="cls-2" d="M335.459 0l-21 36.14a6.6 6.6 0 00-3.41-.93 6.785 6.785 0 00-3.41 12.66L286.059 85H0V0zM399.2 31.1h-13.9a8.6 8.6 0 00-.1 1.6c0 1.2.1 1.5.4 1.7l2.6.2h2.3v10.2c0 9.9 0 10.2.4 10.4a5.451 5.451 0 003.1 0c.2-.2.2-2.7.2-10.4V34.6h2.3c2.9 0 3 0 2.9-2zm-42.1 3.5h4.8a28.055 28.055 0 005.1-.2c.2-.1.3-.5.3-1.7v-1.6h-6.8c-6.6 0-6.8 0-7 .3s-.2 4-.1 12c.1 10.1.1 11.7.3 11.8s13 .2 13.5-.1.3-.5.3-1.7V52h-10.4v-7h4.6a29.339 29.339 0 005-.2c.3-.1.3-.5.3-1.7v-1.5h-9.7v-7z"/><path class="cls-1" d="M285.7 42.7l-5-11.7h-1.8c-1.7 0-1.8 0-2 .4-1.5 3.2-9.9 23.1-9.9 23.3s.6.7 2.1.7 1.5-.1 1.6-.3.9-1.9 1.8-3.8l1.6-3.6h9.6l1.6 3.8a17.624 17.624 0 001.9 3.9 8.608 8.608 0 003.2 0 .55.55 0 00.3-.5c0-.4-2.2-5.8-5-12.2zm-6.9 1.3h-3.1l1.6-3.8a23.675 23.675 0 011.7-3.6l1.6 3.7c.5 1.2 1 2.4 1.4 3.7zm-40.6-1.2l-5-11.6a4.305 4.305 0 00-1.9-.2h-1.8l-5 11.6-5.1 11.9c-.2.6.4.9 2 .9s1.7 0 2.7-2.3l1.5-3.6.8-1.9h9.6l1.6 3.8a33.9 33.9 0 001.8 3.9l1.7.2c1.5 0 2.1-.3 1.9-.9zm-6.9 1.2l-3.2-.2c0-.2 2.9-7 3.1-7.3s.2-.1.3.2l1.5 3.7 1.4 3.5a10.751 10.751 0 01-3.1.1zm-25.9-13c-1.7 0-1.8 0-1.9.4l-5 11.7c-2.7 6.2-4.9 11.4-4.9 11.6a.664.664 0 00.4.5 6.886 6.886 0 003.2-.1 26.4 26.4 0 001.8-3.8l1.6-3.6h9.7l1.6 3.7a23.506 23.506 0 001.9 3.9 6.163 6.163 0 003.3 0 1.421 1.421 0 00.2-.6c0-.3-9.6-22.9-9.9-23.4s-.9-.3-2-.3zm0 13h-3.2l1.6-3.8a23.675 23.675 0 011.7-3.6l1.6 3.7c.5 1.2 1 2.4 1.4 3.7zm-14.2-12.9H189c-2.2-.1-2.3 0-2.5.4l-4 9.1-3.8 8.7-1.3-3-3.9-9.1-2.6-6h-4.7c-.1.1-.1 5.5-.1 12 0 11.6 0 11.9.4 12.1a5.451 5.451 0 003.1 0c.2-.2.2-2.4.2-8.8v-8.7l3.7 8.6c2 4.8 3.8 8.7 3.9 8.8a4.964 4.964 0 002.7-.1c.1-.1 1.8-4 3.8-8.6l3.6-8.4v8.4c.1 7.2.1 8.4.4 8.6a8.083 8.083 0 003.1 0c.2-.1.2-2.7.2-12.2zm-29.9-.1h-1.8l-2.9 6.6c-1.6 3.6-2.9 6.6-3 6.6l-3.5-6.6-3.4-6.6h-1.9c-1.7 0-1.9 0-2 .3s1.1 2.7 4.3 8.8l4.4 8.4-1.3 2.9a30.546 30.546 0 00-1.3 3.2.664.664 0 00.4.5 6.886 6.886 0 003.2-.1c.5-.4 10.8-23.4 10.6-23.8s-.2-.2-1.8-.2zm-41.2.1h-13.9a8.6 8.6 0 00-.1 1.6c0 1.2.1 1.5.3 1.7l2.6.2h2.3v10.2c0 9.9 0 10.2.3 10.4a5.8 5.8 0 003.2 0c.2-.2.2-2.7.2-10.4V34.6h2.3c2.9 0 3 0 2.9-2zm-72.9 4l1.5 9.2H30.4l1.6-9.2h-3.8l-3.6 21.3.7-.1 3.1-.6 1.3-7.6h19.8l1.2 7.7 1.1.2 2.8.4-3.8-21.3h-3.6z"/><path class="cls-1" d="M33.7 24.6h3.9v16h3.8v-16h4l1.2 7.2h3.6l-1.8-10.9h-3.6l-14-.1-2 11h3.8l1.1-7.2z"/><path d="M123.833 31.865h2.317v13.807c0 1.062 0 2.028.1 3.09a6.094 6.094 0 00.763 2.219 4.319 4.319 0 001.932 1.545 6.048 6.048 0 002.612.58 5.726 5.726 0 002.221-.483 4.721 4.721 0 001.738-1.352 5.109 5.109 0 001.062-2.028 14.806 14.806 0 00.193-3.573v-13.8h2.317v13.802a14.349 14.349 0 01-.58 4.922 6.4 6.4 0 01-2.411 3.283 6.48 6.48 0 01-4.345 1.352 8.406 8.406 0 01-4.731-1.352 6.34 6.34 0 01-2.611-3.477 16.083 16.083 0 01-.387-4.828zm123.21 22.566V31.536h4.778a23.568 23.568 0 017.465.8 9.982 9.982 0 015.175 4.081 12.156 12.156 0 011.891 6.869 13.04 13.04 0 01-1.495 6.072 9.132 9.132 0 01-3.882 3.882 14.036 14.036 0 01-6.67 1.294zm2.19-2.19h2.688a24.5 24.5 0 006.569-.6 7.726 7.726 0 004.081-2.986 9.357 9.357 0 001.493-5.378 9.64 9.64 0 00-1.593-5.674 8.016 8.016 0 00-4.479-3.185 27.94 27.94 0 00-7.067-.7h-1.591z" stroke="#fce152" stroke-miterlimit="10" stroke-width="1.5" fill="#fce152"/><path d="M332 54.4V31.9h.489l14.964 17.218V31.9h2.25v22.5h-.489l-14.867-17.021V54.4zm38.5-22.554h11.328v2.19h-9.044v7.044h9.044v2.19h-9.044v11.139H370.5z" stroke="#1ca06e" stroke-miterlimit="10" stroke-width="1.5" fill="#1ca06e"/><path class="cls-1" d="M39.6 3.8A38.623 38.623 0 001 42.4v.1A38.056 38.056 0 008.1 65c.4.5.7 1 1.1 1.5a38.547 38.547 0 0060.8 0c.4-.5.7-1 1.1-1.5A38.759 38.759 0 0039.6 3.8zm0 73.2a34.524 34.524 0 01-26.4-12.3c7.2-2.6 16.4-4 26.4-4a84.39 84.39 0 0125 3.5c.5.2.9.3 1.4.5A34.524 34.524 0 0139.6 77zm27.9-14.5c-.4-.2-.8-.5-1.3-.7a53.327 53.327 0 00-14.7-4.5 80.946 80.946 0 00-12-1 71.193 71.193 0 00-13.9 1.3 47.275 47.275 0 00-14.1 4.9A34.462 34.462 0 1174 42.4a32.874 32.874 0 01-6.5 20.1z"/><path class="cls-2" d="M314.459 36.14a6.78 6.78 0 01-5.05 12.45c-.05-.01-.11-.02-.15-.03a6.483 6.483 0 01-1.62-.69z"/><path class="cls-1" d="M314.459 36.14l-6.82 11.73a6.785 6.785 0 013.41-12.66 6.6 6.6 0 013.41.93z"/></svg>