<svg version="1.1" id="Layer_1" xmlns="http://www.w3.org/2000/svg" x="0" y="0" viewBox="0 0 65 85" xml:space="preserve"><style>.st0{fill:#fce152}</style><path class="st0" d="M32.7 10.7C15.1 10.7.9 24.9.9 42.5.9 49.4 3 55.8 6.8 61l.9 1.2c5.8 7.4 14.9 12.2 25 12.2 10.2 0 19.2-4.8 25-12.2l.9-1.2c3.7-5.2 5.9-11.6 5.9-18.5 0-17.6-14.3-31.8-31.8-31.8zm0 60.2C24 70.9 16.2 67 11 60.8c5.9-2.1 13.5-3.3 21.7-3.3s15.7 1.2 21.7 3.3c-5.3 6.2-13 10.1-21.7 10.1zm23-11.9c-5.5-3-13.8-5-23-5-9.3 0-17.6 2-23.1 5.1-3.3-4.7-5.3-10.4-5.3-16.5 0-15.7 12.7-28.4 28.4-28.4S61 26.8 61 42.5c0 6.2-1.9 11.9-5.3 16.5z"/><path class="st0" d="M27 33.7l.9-5.9h3.2V41h3.1V27.8h3.3l1 5.9h3L40 24.8h-3l-11.5-.1-1.6 9H27z"/><path class="st0" d="M39 36.5l1.2 7.5h-15l1.3-7.5h-3.1l-3 17.5 3.1-.6 1.1-6.2h16.3l1 6.3 3.2.5L42 36.5z"/></svg>