<svg id="Layer_1" data-name="Layer 1" xmlns="http://www.w3.org/2000/svg" viewBox="0 0 426.169 85"><defs><style>.cls-1,.cls-3{fill:#fce152;}.cls-2,.cls-4{fill:#1ca06e;}.cls-3{stroke:#fce152;}.cls-3,.cls-4{stroke-miterlimit:10;stroke-width:1.5px;}.cls-4{stroke:#1ca06e;}</style></defs><title>logo_eng1</title><path class="cls-1" d="M426.169,0V85H286.059l21.58-37.13a6.483,6.483,0,0,0,1.62.69c.04.01.1.02.15.03a6.784,6.784,0,0,0,5.05-12.45l21-36.14Z" transform="translate(0 0)"/><path class="cls-2" d="M335.459,0l-21,36.14a6.6,6.6,0,0,0-3.41-.93,6.785,6.785,0,0,0-3.41,12.66L286.059,85H0V0Z" transform="translate(0 0)"/><path class="cls-2" d="M399.2,31.1H385.3a8.6,8.6,0,0,0-.1,1.6c0,1.2.1,1.5.4,1.7l2.6.2h2.3V44.8c0,9.9,0,10.2.4,10.4a5.451,5.451,0,0,0,3.1,0c.2-.2.2-2.7.2-10.4V34.6h2.3c2.9,0,3,0,2.9-2Z" transform="translate(0 0)"/><path class="cls-2" d="M357.1,34.6h4.8a28.055,28.055,0,0,0,5.1-.2c.2-.1.3-.5.3-1.7V31.1h-6.8c-6.6,0-6.8,0-7,.3s-.2,4-.1,12c.1,10.1.1,11.7.3,11.8s13,.2,13.5-.1.3-.5.3-1.7V52H357.1V45h4.6a29.339,29.339,0,0,0,5-.2c.3-.1.3-.5.3-1.7V41.6h-9.7v-7Z" transform="translate(0 0)"/><path class="cls-1" d="M285.7,42.7l-5-11.7h-1.8c-1.7,0-1.8,0-2,.4-1.5,3.2-9.9,23.1-9.9,23.3s.6.7,2.1.7,1.5-.1,1.6-.3.9-1.9,1.8-3.8l1.6-3.6h9.6l1.6,3.8a17.624,17.624,0,0,0,1.9,3.9,8.608,8.608,0,0,0,3.2,0,.55.55,0,0,0,.3-.5C290.7,54.5,288.5,49.1,285.7,42.7ZM278.8,44h-3.1l1.6-3.8a23.675,23.675,0,0,1,1.7-3.6l1.6,3.7c.5,1.2,1,2.4,1.4,3.7Z" transform="translate(0 0)"/><path class="cls-1" d="M238.2,42.8l-5-11.6a4.305,4.305,0,0,0-1.9-.2h-1.8l-5,11.6-5.1,11.9c-.2.6.4.9,2,.9s1.7,0,2.7-2.3l1.5-3.6.8-1.9H236l1.6,3.8a33.9,33.9,0,0,0,1.8,3.9l1.7.2c1.5,0,2.1-.3,1.9-.9ZM231.3,44l-3.2-.2c0-.2,2.9-7,3.1-7.3s.2-.1.3.2l1.5,3.7,1.4,3.5A10.751,10.751,0,0,1,231.3,44Z" transform="translate(0 0)"/><path class="cls-1" d="M205.4,31c-1.7,0-1.8,0-1.9.4l-5,11.7c-2.7,6.2-4.9,11.4-4.9,11.6a.664.664,0,0,0,.4.5,6.886,6.886,0,0,0,3.2-.1,26.4,26.4,0,0,0,1.8-3.8l1.6-3.6h9.7l1.6,3.7a23.506,23.506,0,0,0,1.9,3.9,6.163,6.163,0,0,0,3.3,0,1.421,1.421,0,0,0,.2-.6c0-.3-9.6-22.9-9.9-23.4S206.5,31,205.4,31Zm0,13h-3.2l1.6-3.8a23.675,23.675,0,0,1,1.7-3.6l1.6,3.7c.5,1.2,1,2.4,1.4,3.7Z" transform="translate(0 0)"/><path class="cls-1" d="M191.2,31.1H189c-2.2-.1-2.3,0-2.5.4l-4,9.1-3.8,8.7-1.3-3-3.9-9.1-2.6-6h-4.7c-.1.1-.1,5.5-.1,12,0,11.6,0,11.9.4,12.1a5.451,5.451,0,0,0,3.1,0c.2-.2.2-2.4.2-8.8V37.8l3.7,8.6c2,4.8,3.8,8.7,3.9,8.8a4.964,4.964,0,0,0,2.7-.1c.1-.1,1.8-4,3.8-8.6l3.6-8.4v8.4c.1,7.2.1,8.4.4,8.6a8.083,8.083,0,0,0,3.1,0c.2-.1.2-2.7.2-12.2Z" transform="translate(0 0)"/><path class="cls-1" d="M161.3,31h-1.8l-2.9,6.6c-1.6,3.6-2.9,6.6-3,6.6l-3.5-6.6L146.7,31h-1.9c-1.7,0-1.9,0-2,.3s1.1,2.7,4.3,8.8l4.4,8.4-1.3,2.9a30.546,30.546,0,0,0-1.3,3.2.664.664,0,0,0,.4.5,6.886,6.886,0,0,0,3.2-.1c.5-.4,10.8-23.4,10.6-23.8S162.9,31,161.3,31Z" transform="translate(0 0)"/><path class="cls-1" d="M120.1,31.1H106.2a8.6,8.6,0,0,0-.1,1.6c0,1.2.1,1.5.3,1.7l2.6.2h2.3V44.8c0,9.9,0,10.2.3,10.4a5.8,5.8,0,0,0,3.2,0c.2-.2.2-2.7.2-10.4V34.6h2.3c2.9,0,3,0,2.9-2Z" transform="translate(0 0)"/><polygon class="cls-1" points="47.2 35.1 48.7 44.3 30.4 44.3 32 35.1 28.2 35.1 24.6 56.4 25.3 56.3 28.4 55.7 29.7 48.1 49.5 48.1 50.7 55.8 51.8 56 54.6 56.4 50.8 35.1 47.2 35.1"/><polygon class="cls-1" points="33.7 24.6 37.6 24.6 37.6 40.6 41.4 40.6 41.4 24.6 45.4 24.6 46.6 31.8 50.2 31.8 48.4 20.9 44.8 20.9 30.8 20.8 28.8 31.8 32.6 31.8 33.7 24.6"/><path class="cls-3" d="M123.833,31.865h2.317V45.672c0,1.062,0,2.028.1,3.09a6.094,6.094,0,0,0,.763,2.219,4.319,4.319,0,0,0,1.932,1.545,6.048,6.048,0,0,0,2.612.58,5.726,5.726,0,0,0,2.221-.483,4.721,4.721,0,0,0,1.738-1.352,5.109,5.109,0,0,0,1.062-2.028,14.806,14.806,0,0,0,.193-3.573v-13.8h2.317V45.672a14.349,14.349,0,0,1-.58,4.922,6.4,6.4,0,0,1-2.411,3.283,6.48,6.48,0,0,1-4.345,1.352,8.406,8.406,0,0,1-4.731-1.352A6.34,6.34,0,0,1,124.41,50.4a16.083,16.083,0,0,1-.387-4.828Z" transform="translate(0 0)"/><path class="cls-3" d="M247.043,54.431V31.536h4.778a23.568,23.568,0,0,1,7.465.8,9.982,9.982,0,0,1,5.175,4.081,12.156,12.156,0,0,1,1.891,6.869,13.04,13.04,0,0,1-1.495,6.072,9.132,9.132,0,0,1-3.882,3.882,14.036,14.036,0,0,1-6.67,1.294Zm2.19-2.19h2.688a24.5,24.5,0,0,0,6.569-.6,7.726,7.726,0,0,0,4.081-2.986,9.357,9.357,0,0,0,1.493-5.378,9.64,9.64,0,0,0-1.593-5.674,8.016,8.016,0,0,0-4.479-3.185,27.94,27.94,0,0,0-7.067-.7h-1.591Z" transform="translate(0 0)"/><path class="cls-4" d="M332,54.4V31.9h.489l14.964,17.218V31.9h2.25V54.4h-.489L334.347,37.379V54.4Z" transform="translate(0 0)"/><path class="cls-4" d="M370.5,31.846h11.328v2.19h-9.044v7.044h9.044v2.19h-9.044V54.409H370.5Z" transform="translate(0 0)"/><path class="cls-1" d="M39.6,3.8A38.623,38.623,0,0,0,1,42.4v.1A38.056,38.056,0,0,0,8.1,65c.4.5.7,1,1.1,1.5a38.547,38.547,0,0,0,60.8,0c.4-.5.7-1,1.1-1.5A38.759,38.759,0,0,0,39.6,3.8Zm0,73.2A34.524,34.524,0,0,1,13.2,64.7c7.2-2.6,16.4-4,26.4-4a84.39,84.39,0,0,1,25,3.5c.5.2.9.3,1.4.5A34.524,34.524,0,0,1,39.6,77ZM67.5,62.5c-.4-.2-.8-.5-1.3-.7a53.327,53.327,0,0,0-14.7-4.5,80.946,80.946,0,0,0-12-1,71.193,71.193,0,0,0-13.9,1.3,47.275,47.275,0,0,0-14.1,4.9A34.462,34.462,0,1,1,74,42.4,32.874,32.874,0,0,1,67.5,62.5Z" transform="translate(0 0)"/><path class="cls-2" d="M314.459,36.14a6.78,6.78,0,0,1-5.05,12.45c-.05-.01-.11-.02-.15-.03a6.483,6.483,0,0,1-1.62-.69Z" transform="translate(0 0)"/><path class="cls-1" d="M314.459,36.14l-6.82,11.73a6.785,6.785,0,0,1,3.41-12.66A6.6,6.6,0,0,1,314.459,36.14Z" transform="translate(0 0)"/></svg>