<svg version="1.1" id="Layer_1" xmlns="http://www.w3.org/2000/svg" x="0" y="0" viewBox="0 0 63.6 63.7" xml:space="preserve"><style>.st0{fill:#f7f7f7}</style><path class="st0" d="M31.8 0C14.2 0 0 14.2 0 31.8c0 6.9 2.1 13.3 5.9 18.5l.9 1.2c5.8 7.4 14.9 12.2 25 12.2 10.2 0 19.2-4.8 25-12.2l.9-1.2c3.7-5.2 5.9-11.6 5.9-18.5C63.6 14.2 49.3 0 31.8 0zm0 60.2c-8.7 0-16.5-3.9-21.7-10.1 5.9-2.1 13.5-3.3 21.7-3.3s15.7 1.2 21.7 3.3c-5.3 6.2-13 10.1-21.7 10.1zm23-11.9c-5.5-3-13.8-5-23-5-9.3 0-17.6 2-23.1 5.1C5.4 43.7 3.4 38 3.4 31.9c0-15.7 12.7-28.4 28.4-28.4s28.3 12.6 28.3 28.3c0 6.2-1.9 11.9-5.3 16.5z"/><path class="st0" d="M26.1 23l.9-5.9h3.2v13.2h3.1V17.1h3.3l1 5.9h3l-1.5-8.9h-3L24.6 14 23 23z"/><path class="st0" d="M38.1 25.8l1.2 7.5h-15l1.3-7.5h-3.1l-3 17.5 3.1-.6 1.1-6.2H40l1 6.3 3.2.5-3.1-17.5z"/></svg>