<svg id="Layer_1" data-name="Layer 1" xmlns="http://www.w3.org/2000/svg" viewBox="0 0 426.17 85"><defs><style>.cls-1{fill:#1ca06e}.cls-2{fill:#fce152}</style></defs><path class="cls-1" d="M335.459 0l-21 36.14a6.605 6.605 0 00-3.41-.93 6.785 6.785 0 00-3.41 12.66L286.059 85H0V0h335.46z" transform="translate(.001)"/><path class="cls-2" d="M426.169 0v85h-140.11l21.58-37.13a6.483 6.483 0 001.62.69c.04.01.1.02.15.03a6.784 6.784 0 005.05-12.45l21-36.14z" transform="translate(.001)"/><path class="cls-1" d="M314.459 36.14a6.78 6.78 0 01-5.05 12.45c-.05-.01-.11-.02-.15-.03a6.483 6.483 0 01-1.62-.69z" transform="translate(.001)"/><path class="cls-2" d="M314.459 36.14l-6.82 11.73a6.785 6.785 0 013.41-12.66 6.605 6.605 0 013.41.93z" transform="translate(.001)"/><path class="cls-1" d="M424.859 44.56a7.252 7.252 0 00-5.22-3.85c-.5-.09-2.23-.22-3.83-.3l-2.9-.13-.04-4.57-.05-4.57-1.67-.05a8.068 8.068 0 00-1.83.07c-.07.07-.13 5.46-.13 11.97 0 8.94.06 11.87.23 12.04.28.28 7.62.3 9.53.04a7.57 7.57 0 005.82-4.05c.46-.97.5-1.25.5-3.39a6.792 6.792 0 00-.41-3.21zm-5.54 6.95a18.939 18.939 0 01-3.47.31l-2.94.08v-7.84h2.94c2.43 0 3.04.05 3.66.35a3.64 3.64 0 012.13 3.49 4 4 0 01-2.32 3.61zm-12.08-20.37l-6.89-.05c-3.79-.02-6.93.01-7.01.09a5.432 5.432 0 00-.13 1.56c0 1.24.06 1.49.36 1.65a11.884 11.884 0 002.6.19h2.25V44.8c0 9.9.01 10.22.35 10.41a6.143 6.143 0 003.14-.04c.17-.17.22-2.73.22-10.41V34.58h2.29c2.93 0 2.95 0 2.88-1.95zm-17.91 5.11a12.4 12.4 0 00-6.47-2.6h-.61v-1.08a2.7 2.7 0 00-.22-1.3 6.911 6.911 0 00-3.46 0 2.7 2.7 0 00-.22 1.3v1.08h-.6a12.318 12.318 0 00-4.16 1.11 9.5 9.5 0 00-4.94 5.36 10.446 10.446 0 00.03 5.89 9.337 9.337 0 004.95 5.29 11.7 11.7 0 004.12 1.12h.6v1.13c0 1.75.09 1.84 1.95 1.84s1.95-.09 1.95-1.84v-1.13h.61a12.192 12.192 0 004.15-1.12 9.483 9.483 0 004.94-5.35 10.692 10.692 0 000-5.83 9.777 9.777 0 00-2.62-3.87zm-10.98 6.8v6.25l-.88-.13a8.668 8.668 0 01-2.02-.67 6.079 6.079 0 01-1.92-9.55 7.025 7.025 0 014.31-2.12l.51-.02zm8.64 4.15a7.838 7.838 0 01-3.89 1.99l-.85.13V36.75l.89.13a8.147 8.147 0 012.01.67 6.073 6.073 0 011.84 9.65zm-30.94-12.62h4.79c3.59 0 4.89-.06 5.13-.24.26-.19.3-.49.26-1.71l-.06-1.49-6.82-.05c-6.65-.04-6.82-.04-7.02.33-.13.24-.19 4.03-.15 11.99.06 10.09.09 11.65.34 11.8.44.29 13.04.24 13.45-.06.26-.19.3-.48.26-1.71l-.06-1.49-5.05-.05-5.07-.04v-6.87h4.6c3.44 0 4.71-.06 4.95-.25.26-.18.3-.48.26-1.71l-.06-1.48-4.87-.06-4.88-.04v-6.87zm-8.48-3.49l-1.65.05-.06 5.15-.03 5.16h-10.6l-.03-5.16-.06-5.15-1.67-.05a7.907 7.907 0 00-1.82.07c-.08.07-.13 5.46-.13 11.97 0 8.94.05 11.87.22 12.04a6.144 6.144 0 003.14.04c.33-.19.35-.45.35-5.21v-5.01h10.6v5.09c0 5.81-.17 5.31 1.85 5.31.91 0 1.36-.07 1.56-.3.27-.26.3-1.59.3-11.93 0-6.41-.07-11.76-.15-11.89-.11-.17-.61-.22-1.82-.18z" transform="translate(.001)"/><path class="cls-2" d="M285.739 42.69l-5.01-11.67h-1.79c-1.69 0-1.8.02-1.99.41-1.45 3.18-9.92 23.08-9.92 23.28 0 .49.63.69 2.1.69.95 0 1.46-.07 1.61-.26.11-.13.91-1.88 1.76-3.85l1.57-3.61 4.82-.06 4.82-.03 1.64 3.79a22.791 22.791 0 001.91 3.91 9.7 9.7 0 003.19-.05.688.688 0 00.26-.51c0-.22-2.23-5.63-4.97-12.04zm-6.93 1.32l-3.14-.05 1.58-3.76a21.8 21.8 0 011.73-3.63c.07.07.8 1.75 1.64 3.74a36.365 36.365 0 011.43 3.67c-.04.05-1.49.05-3.24.03zm-12.62 7.95l-1.06-.06-1.04-.05-.48-1.16c-.28-.63-2.2-5.3-4.26-10.36l-3.78-9.22-1.81-.05c-1.34-.04-1.84.02-1.9.19-.05.13-1.97 4.8-4.26 10.38l-4.17 10.14-1.08.1-1.1.09-.05 3.61c-.04 2.49.02 3.69.17 3.85a5.587 5.587 0 003.29.04 5.125 5.125 0 00.22-2.14V55.4h17.68v1.92a5.04 5.04 0 00.23 2.14 7.179 7.179 0 003.27.08c.17-.14.23-1.03.19-3.88zm-9.3-.13c-1.68.02-4.47.02-6.2 0l-3.14-.06 3.08-7.57c2.18-5.34 3.13-7.48 3.24-7.26.08.17 1.47 3.57 3.11 7.58l2.96 7.25zm-21.5-8.99c-2.68-6.25-4.91-11.46-4.97-11.59-.07-.15-.63-.23-1.9-.23H226.7l-4.99 11.58c-2.73 6.38-5.02 11.72-5.06 11.89-.17.63.45.91 1.97.91 1.73 0 1.73 0 2.72-2.32.39-.93 1.08-2.53 1.53-3.6l.83-1.89h9.61l1.62 3.76a32.97 32.97 0 001.82 3.9 6.175 6.175 0 001.66.15c1.5 0 2.14-.29 1.95-.91-.051-.17-2.291-5.41-4.971-11.65zm-6.88 1.21a17.275 17.275 0 01-3.17-.15c0-.17 2.89-6.98 3.09-7.33.09-.13.19-.09.28.15.07.18.76 1.86 1.54 3.7s1.42 3.41 1.42 3.48a16.132 16.132 0 01-3.16.15zm-24.68-13.03c-1.66 0-1.77.02-1.92.41-.09.24-2.36 5.49-5.03 11.67-2.68 6.2-4.85 11.41-4.85 11.58a.734.734 0 00.35.54 6.319 6.319 0 003.24-.06 25.9 25.9 0 001.84-3.85l1.56-3.63 4.82-.06 4.84-.03 1.57 3.66a26.051 26.051 0 001.86 3.91 6.081 6.081 0 003.33.02.883.883 0 00.22-.58c0-.35-9.58-22.91-9.92-23.35-.11-.15-.739-.23-1.91-.23zm-.04 12.99l-3.17-.05 1.61-3.76a21.76 21.76 0 011.73-3.63c.07.07.8 1.75 1.63 3.74a37.9 37.9 0 011.44 3.68c-.04.04-1.49.04-3.24.02zm-12.97-12.9l-2.27-.05c-2.2-.06-2.27-.04-2.5.37-.13.24-1.92 4.36-3.98 9.14l-3.76 8.71-1.32-3.03c-.73-1.68-2.5-5.75-3.93-9.09l-2.6-6.05-2.31-.05a16.3 16.3 0 00-2.42.07c-.08.08-.13 5.48-.13 12.01 0 11.56.02 11.89.35 12.08a6.181 6.181 0 003.15-.04c.16-.17.22-2.38.22-8.8l.02-8.56 3.68 8.61c2.03 4.75 3.8 8.71 3.95 8.81a5.078 5.078 0 002.74-.06c.11-.11 1.82-3.98 3.79-8.58l3.59-8.39.1 8.43c.07 7.2.13 8.43.37 8.58a7.674 7.674 0 003.13.03c.18-.13.22-2.68.18-12.15zm-27.73 0l-1.72-.05-1.71-.06-.8 1.12c-.45.6-3.22 4.62-6.2 8.9l-5.39 7.81-.1-8.86-.09-8.86-1.68-.05a7.9 7.9 0 00-1.82.07c-.07.08-.13 5.48-.13 11.99 0 8.95.06 11.89.22 12.06a5.617 5.617 0 003.37-.06c.15-.14 2.98-4.18 6.29-8.97l6.03-8.71.06 8.75c.04 7.97.07 8.77.35 8.97a5.133 5.133 0 003.2-.02c.15-.16.19-3.51.17-12.13zm-12.66-.93a4.627 4.627 0 002.87.56 5.574 5.574 0 002.71-.43 4.548 4.548 0 002.81-3.53c.15-.91-.18-1.16-1.6-1.16-1.19 0-1.6.21-1.73.92-.17.8-.91 1.22-2.18 1.22s-2.01-.42-2.17-1.22a1.142 1.142 0 00-.45-.73 4.3 4.3 0 00-2.66.06c-.32.24-.34.33-.11 1.22a4.529 4.529 0 002.51 3.09zm-10.65.88l-1.76.05-2.93 6.56c-1.6 3.61-2.94 6.57-2.99 6.57s-1.62-2.96-3.48-6.57l-3.39-6.56-1.86-.05c-1.73-.04-1.86-.02-1.98.33-.09.28 1.07 2.65 4.27 8.83l4.39 8.43-1.3 2.92a33.188 33.188 0 00-1.31 3.18.693.693 0 00.36.47 6.24 6.24 0 003.22-.06c.46-.37 10.77-23.39 10.64-23.8-.09-.32-.28-.34-1.88-.3zm-19.69.05l-6.9-.05c-3.8-.02-6.95.02-7.02.09a5.587 5.587 0 00-.13 1.57c0 1.24.06 1.48.35 1.65a12.075 12.075 0 002.61.19h2.25v10.23c0 9.92.02 10.24.35 10.43a6.178 6.178 0 003.15-.04c.17-.17.22-2.74.22-10.42v-10.2h2.29c2.94 0 2.96 0 2.89-1.96zM39.539 3.8A38.583 38.583 0 00.9 42.44a37.845 37.845 0 007.17 22.48c.37.49.73.97 1.09 1.46a38.548 38.548 0 0060.76 0c.36-.49.73-.97 1.09-1.46A38.685 38.685 0 0039.539 3.8zm0 73.15a34.319 34.319 0 01-26.37-12.27c7.17-2.56 16.41-4.01 26.37-4.01a82.708 82.708 0 0124.98 3.54c.47.15.93.31 1.39.47a34.505 34.505 0 01-26.37 12.27zm27.95-14.46c-.42-.23-.85-.45-1.29-.67a53.477 53.477 0 00-14.66-4.45 74.229 74.229 0 00-12-.96 73.128 73.128 0 00-13.95 1.31 47.552 47.552 0 00-14.12 4.89 34.886 34.886 0 01-6.44-20.05 34.45 34.45 0 0168.9-.12 33.5 33.5 0 01-6.44 20.05z" transform="translate(.001)"/><path class="cls-2" d="M47.2 35.15l1.46 9.11H30.43l1.58-9.11h-3.77L24.6 56.41l.71-.14 3.05-.59 1.34-7.53h19.81l1.21 7.66 1.04.16 2.85.44-3.77-21.26H47.2z"/><path class="cls-2" d="M33.71 24.58h3.89v16.04h3.76V24.58h4.01l1.22 7.17h3.65l-1.83-10.82h-3.64l-13.98-.12-1.94 10.94h3.77l1.09-7.17z"/></svg>