<svg id="Layer_1" data-name="Layer 1" xmlns="http://www.w3.org/2000/svg" viewBox="0 0 377.953 77.1"><defs><style>.cls-1{fill:#fce152;}</style></defs><title>logo-footer</title><path class="cls-1" d="M138.76,30.044a4.527,4.527,0,0,0,2.745.549,5.341,5.341,0,0,0,2.618-.422,4.4,4.4,0,0,0,2.7-3.378c.127-.887-.169-1.1-1.52-1.1-1.14,0-1.52.211-1.647.887-.169.76-.887,1.182-2.069,1.182-1.224,0-1.942-.422-2.069-1.182a1,1,0,0,0-.422-.676,4.306,4.306,0,0,0-2.533.042c-.3.211-.338.338-.127,1.182A3.922,3.922,0,0,0,138.76,30.044Z" transform="translate(-0.9 -3.95)"/><path class="cls-1" d="M109.752,30.931l-6.587-.042c-3.631,0-6.629,0-6.714.084a4.431,4.431,0,0,0-.127,1.478c0,1.182.042,1.436.338,1.6a12.733,12.733,0,0,0,2.491.169h2.153v9.8c0,9.5,0,9.8.338,9.965a5.96,5.96,0,0,0,3-.042c.169-.169.211-2.618.211-9.965V34.224h2.2c2.829,0,2.829,0,2.745-1.858Z" transform="translate(-0.9 -3.95)"/><path class="cls-1" d="M128.584,30.889l-1.689.042-2.787,6.249c-1.52,3.462-2.829,6.291-2.871,6.291s-1.562-2.829-3.336-6.291l-3.251-6.249-1.773-.042c-1.647-.042-1.773,0-1.9.338-.084.253,1.013,2.533,4.1,8.445l4.18,8.065-1.267,2.787c-.676,1.52-1.267,2.913-1.267,3.04a.818.818,0,0,0,.338.464,6.31,6.31,0,0,0,3.082-.042c.464-.338,10.3-22.378,10.176-22.758C130.273,30.889,130.1,30.846,128.584,30.889Z" transform="translate(-0.9 -3.95)"/><path class="cls-1" d="M150.836,30.931l-1.647-.042-1.647-.042-.76,1.056c-.422.549-3.082,4.433-5.911,8.487l-5.151,7.474-.084-8.487-.084-8.487-1.6-.042a6.957,6.957,0,0,0-1.731.084c-.084.084-.127,5.236-.127,11.443,0,8.571.042,11.358.211,11.527a5.2,5.2,0,0,0,3.209-.042c.127-.127,2.829-4.011,6-8.571l5.785-8.318.042,8.36c.042,7.6.084,8.4.338,8.571a4.975,4.975,0,0,0,3.04,0c.127-.169.169-3.378.169-11.611Z" transform="translate(-0.9 -3.95)"/><path class="cls-1" d="M177.352,30.931l-2.153-.042c-2.111-.042-2.153-.042-2.365.338-.127.211-1.816,4.18-3.8,8.74l-3.589,8.318-1.267-2.913c-.676-1.6-2.365-5.489-3.758-8.7l-2.491-5.785-2.2-.042a12.707,12.707,0,0,0-2.322.084c-.084.084-.127,5.236-.127,11.485,0,11.063,0,11.358.338,11.569a5.96,5.96,0,0,0,3-.042c.169-.169.211-2.28.211-8.4V37.349l3.5,8.234c1.942,4.518,3.631,8.318,3.758,8.4a4.991,4.991,0,0,0,2.618-.042c.127-.127,1.731-3.8,3.631-8.191l3.42-8.022.084,8.065c.084,6.882.127,8.065.338,8.191a7.957,7.957,0,0,0,3,.042c.169-.127.211-2.576.169-11.611Z" transform="translate(-0.9 -3.95)"/><path class="cls-1" d="M189.808,30.846c-1.6,0-1.689,0-1.816.38-.084.211-2.28,5.236-4.813,11.147-2.576,5.911-4.645,10.894-4.645,11.063a.694.694,0,0,0,.338.507,6.31,6.31,0,0,0,3.082-.042,24.418,24.418,0,0,0,1.773-3.673l1.478-3.462,4.6-.042,4.645-.042,1.478,3.5a25.136,25.136,0,0,0,1.773,3.758,5.764,5.764,0,0,0,3.167,0,.8.8,0,0,0,.211-.549c0-.338-9.163-21.914-9.5-22.336C191.539,30.931,190.948,30.846,189.808,30.846ZM192.89,43.26c-.042.042-1.436.042-3.082,0l-3.04-.042,1.52-3.589a24.3,24.3,0,0,1,1.647-3.462c.084.084.76,1.689,1.562,3.589S192.933,43.218,192.89,43.26Z" transform="translate(-0.9 -3.95)"/><path class="cls-1" d="M220,42.162c-2.576-6-4.687-10.978-4.771-11.1s-.591-.211-1.816-.211H211.68l-4.771,11.063c-2.618,6.122-4.813,11.231-4.856,11.358-.169.591.422.887,1.9.887,1.647,0,1.647,0,2.618-2.238.38-.887,1.013-2.407,1.478-3.42l.8-1.816h9.2l1.562,3.589c.844,1.985,1.647,3.673,1.731,3.758a5.926,5.926,0,0,0,1.6.127c1.436,0,2.027-.3,1.858-.887C224.685,53.14,222.573,48.116,220,42.162Zm-6.587,1.14a23.326,23.326,0,0,1-3.04-.127c0-.169,2.745-6.671,2.956-7.009q.127-.19.253.127c.084.169.718,1.773,1.478,3.547s1.351,3.251,1.351,3.336A15.554,15.554,0,0,1,213.411,43.3Z" transform="translate(-0.9 -3.95)"/><path class="cls-1" d="M249.428,50.86l-1.013-.042-1.013-.042-.464-1.1c-.253-.591-2.111-5.067-4.1-9.923l-3.631-8.825-1.731-.042c-1.267-.042-1.773,0-1.816.169-.042.127-1.9,4.6-4.1,9.923L227.6,50.691l-1.013.084-1.056.084-.042,3.462c-.042,2.365,0,3.5.169,3.673.253.338,2.829.338,3.167.042a5.083,5.083,0,0,0,.211-2.027V54.2h16.889v1.816a5.083,5.083,0,0,0,.211,2.027,7.046,7.046,0,0,0,3.125.084c.169-.127.211-.971.169-3.716Zm-8.867-.084h-5.911l-3-.042,2.956-7.262c2.069-5.109,3-7.136,3.082-6.925.084.169,1.393,3.42,2.956,7.262l2.829,6.925Z" transform="translate(-0.9 -3.95)"/><path class="cls-1" d="M263.361,30.846h-1.689c-1.6,0-1.731,0-1.9.38-1.393,3.04-9.5,22.083-9.5,22.252,0,.464.591.676,2.027.676q1.33,0,1.52-.253c.127-.127.887-1.816,1.689-3.673l1.478-3.462,4.6-.042,4.6-.042,1.562,3.631a27.99,27.99,0,0,0,1.816,3.758,9.131,9.131,0,0,0,3.04-.042.643.643,0,0,0,.253-.464c0-.211-2.111-5.362-4.771-11.527ZM261.5,43.3l-3-.042,1.52-3.589a24.3,24.3,0,0,1,1.647-3.462c.042.084.76,1.689,1.562,3.589a32.824,32.824,0,0,1,1.351,3.5Z" transform="translate(-0.9 -3.95)"/><path class="cls-1" d="M304.572,30.931l-1.562.042-.042,4.94-.042,4.94H292.791l-.042-4.94-.042-4.94-1.6-.042a6.957,6.957,0,0,0-1.731.084c-.042.084-.127,5.236-.127,11.443,0,8.529.042,11.358.211,11.527a5.96,5.96,0,0,0,3,.042c.338-.169.338-.422.338-4.982V44.231h10.134v4.856c0,5.574-.169,5.067,1.773,5.067.887,0,1.309-.084,1.478-.3.253-.253.3-1.52.3-11.4,0-6.122-.084-11.231-.127-11.358C306.218,30.931,305.712,30.889,304.572,30.931Z" transform="translate(-0.9 -3.95)"/><path class="cls-1" d="M312.678,34.266h4.6c3.42,0,4.687-.042,4.9-.211.253-.169.3-.464.253-1.647l-.042-1.436-6.5-.042c-6.376-.042-6.5-.042-6.714.338-.127.211-.169,3.842-.127,11.443.042,9.669.084,11.147.338,11.274.422.3,12.456.211,12.878-.042.253-.169.3-.464.253-1.647l-.042-1.436-4.813-.042-4.856-.042V44.189H317.2c3.293,0,4.476-.042,4.729-.211s.3-.464.253-1.647l-.042-1.436-4.645-.042-4.687-.042V34.266Z" transform="translate(-0.9 -3.95)"/><path class="cls-1" d="M344.515,35.871a11.98,11.98,0,0,0-6.165-2.491h-.591V32.366a2.394,2.394,0,0,0-.211-1.224,6.528,6.528,0,0,0-3.293,0,2.511,2.511,0,0,0-.211,1.224V33.38h-.549a12.111,12.111,0,0,0-3.969,1.056,9.179,9.179,0,0,0-4.729,5.109,9.779,9.779,0,0,0,.042,5.616,8.973,8.973,0,0,0,4.729,5.067,11.638,11.638,0,0,0,3.927,1.056h.549v1.1c0,1.689.084,1.773,1.858,1.773s1.858-.084,1.858-1.773v-1.1h.591a12.111,12.111,0,0,0,3.969-1.056,9.179,9.179,0,0,0,4.729-5.109,10.409,10.409,0,0,0,0-5.574A10.027,10.027,0,0,0,344.515,35.871ZM334,42.373v5.954l-.844-.127a8.608,8.608,0,0,1-1.942-.633,5.8,5.8,0,0,1-1.816-9.12,6.553,6.553,0,0,1,4.138-2.027H334Zm8.276,3.969a7.462,7.462,0,0,1-3.716,1.9l-.8.127V36.378l.844.127a6.277,6.277,0,0,1,1.9.633A5.789,5.789,0,0,1,342.277,46.342Z" transform="translate(-0.9 -3.95)"/><path class="cls-1" d="M361.616,30.973l-6.587-.042c-3.631,0-6.629,0-6.714.084a4.432,4.432,0,0,0-.127,1.478c0,1.182.042,1.436.338,1.562a12.733,12.733,0,0,0,2.491.169h2.153v9.754c0,9.458,0,9.754.338,9.965a5.96,5.96,0,0,0,3-.042c.169-.169.211-2.618.211-9.965V34.182h2.2c2.787,0,2.829,0,2.745-1.858Z" transform="translate(-0.9 -3.95)"/><path class="cls-1" d="M378.463,43.809a6.888,6.888,0,0,0-4.982-3.673c-.464-.084-2.111-.211-3.673-.3l-2.787-.127-.042-4.391-.042-4.391-1.6-.042a6.957,6.957,0,0,0-1.731.084c-.084.084-.127,5.236-.127,11.443,0,8.529.042,11.358.211,11.527.253.253,7.3.3,9.12.042a7.24,7.24,0,0,0,5.573-3.885c.464-.929.464-1.182.464-3.251C378.885,44.991,378.8,44.527,378.463,43.809Zm-5.278,6.629a17.617,17.617,0,0,1-3.336.3l-2.787.084V43.344h2.787c2.322,0,2.913.042,3.5.338a3.471,3.471,0,0,1,2.027,3.336A3.758,3.758,0,0,1,373.185,50.438Z" transform="translate(-0.9 -3.95)"/><circle class="cls-1" cx="278.886" cy="38.55" r="3.758"/><path class="cls-1" d="M39.408,3.95A38.437,38.437,0,0,0,.9,42.458,37.611,37.611,0,0,0,8.036,64.836c.38.464.718.971,1.1,1.436a38.4,38.4,0,0,0,60.549,0c.38-.464.718-.971,1.1-1.436A38.544,38.544,0,0,0,39.408,3.95Zm0,72.878A34.164,34.164,0,0,1,13.145,64.583c7.136-2.533,16.341-4.011,26.263-4.011a80.055,80.055,0,0,1,26.263,4.011A34.3,34.3,0,0,1,39.408,76.828Zm27.868-14.4C60.6,58.8,50.555,56.392,39.45,56.392c-11.274,0-21.323,2.407-27.952,6.165A34.349,34.349,0,0,1,39.45,8.215,34.131,34.131,0,0,1,73.693,42.458,33.472,33.472,0,0,1,67.275,62.429Z" transform="translate(-0.9 -3.95)"/><polygon class="cls-1" points="32.723 20.69 36.566 20.69 36.566 36.692 40.323 36.692 40.323 20.69 44.335 20.69 45.559 27.868 49.19 27.868 47.375 17.058 43.744 17.058 29.81 16.974 27.868 27.868 31.625 27.868 32.723 20.69"/><polygon class="cls-1" points="46.15 31.245 47.586 40.323 29.43 40.323 30.992 31.245 27.276 31.245 23.645 52.442 27.361 51.682 28.712 44.208 48.43 44.208 49.655 51.808 53.539 52.442 49.782 31.245 46.15 31.245"/></svg>