<svg id="Layer_1" data-name="Layer 1" xmlns="http://www.w3.org/2000/svg" viewBox="0 0 426.17 85"><defs><style>.cls-1{fill:#1ca06e;}.cls-2{fill:#fce152;}</style></defs><title>logo</title><path class="cls-1" d="M335.459,0l-21,36.14a6.605,6.605,0,0,0-3.41-.93,6.785,6.785,0,0,0-3.41,12.66L286.059,85H0V0h335.46Z" transform="translate(0.001)"/><path class="cls-2" d="M426.169,0V85H286.059l21.58-37.13a6.483,6.483,0,0,0,1.62.69c.04.01.1.02.15.03a6.784,6.784,0,0,0,5.05-12.45l21-36.14Z" transform="translate(0.001)"/><path class="cls-1" d="M314.459,36.14a6.78,6.78,0,0,1-5.05,12.45c-.05-.01-.11-.02-.15-.03a6.483,6.483,0,0,1-1.62-.69Z" transform="translate(0.001)"/><path class="cls-2" d="M314.459,36.14l-6.82,11.73a6.785,6.785,0,0,1,3.41-12.66A6.605,6.605,0,0,1,314.459,36.14Z" transform="translate(0.001)"/><path class="cls-1" d="M424.859,44.56a7.252,7.252,0,0,0-5.22-3.85c-.5-.09-2.23-.22-3.83-.3l-2.9-.13-.04-4.57-.05-4.57-1.67-.05a8.068,8.068,0,0,0-1.83.07c-.07.07-.13,5.46-.13,11.97,0,8.94.06,11.87.23,12.04.28.28,7.62.3,9.53.04a7.57,7.57,0,0,0,5.82-4.05c.46-.97.5-1.25.5-3.39A6.792,6.792,0,0,0,424.859,44.56Zm-5.54,6.95a18.939,18.939,0,0,1-3.47.31l-2.94.08V44.06h2.94c2.43,0,3.04.05,3.66.35a3.64,3.64,0,0,1,2.13,3.49A4,4,0,0,1,419.319,51.51Z" transform="translate(0.001)"/><path class="cls-1" d="M407.239,31.14l-6.89-.05c-3.79-.02-6.93.01-7.01.09a5.432,5.432,0,0,0-.13,1.56c0,1.24.06,1.49.36,1.65a11.884,11.884,0,0,0,2.6.19h2.25V44.8c0,9.9.01,10.22.35,10.41a6.143,6.143,0,0,0,3.14-.04c.17-.17.22-2.73.22-10.41V34.58h2.29c2.93,0,2.95,0,2.88-1.95Z" transform="translate(0.001)"/><path class="cls-1" d="M389.329,36.25a12.4,12.4,0,0,0-6.47-2.6h-.61V32.57a2.7,2.7,0,0,0-.22-1.3,6.911,6.911,0,0,0-3.46,0,2.7,2.7,0,0,0-.22,1.3v1.08h-.6a12.318,12.318,0,0,0-4.16,1.11,9.5,9.5,0,0,0-4.94,5.36,10.446,10.446,0,0,0,.03,5.89,9.337,9.337,0,0,0,4.95,5.29,11.7,11.7,0,0,0,4.12,1.12h.6v1.13c0,1.75.09,1.84,1.95,1.84s1.95-.09,1.95-1.84V52.42h.61a12.192,12.192,0,0,0,4.15-1.12,9.483,9.483,0,0,0,4.94-5.35,10.692,10.692,0,0,0,0-5.83A9.777,9.777,0,0,0,389.329,36.25Zm-10.98,6.8V49.3l-.88-.13a8.668,8.668,0,0,1-2.02-.67,6.079,6.079,0,0,1-1.92-9.55,7.025,7.025,0,0,1,4.31-2.12l.51-.02Zm8.64,4.15a7.838,7.838,0,0,1-3.89,1.99l-.85.13V36.75l.89.13a8.147,8.147,0,0,1,2.01.67A6.073,6.073,0,0,1,386.989,47.2Z" transform="translate(0.001)"/><path class="cls-1" d="M356.049,34.58h4.79c3.59,0,4.89-.06,5.13-.24.26-.19.3-.49.26-1.71l-.06-1.49-6.82-.05c-6.65-.04-6.82-.04-7.02.33-.13.24-.19,4.03-.15,11.99.06,10.09.09,11.65.34,11.8.44.29,13.04.24,13.45-.06.26-.19.3-.48.26-1.71l-.06-1.49-5.05-.05-5.07-.04V44.99h4.6c3.44,0,4.71-.06,4.95-.25.26-.18.3-.48.26-1.71l-.06-1.48-4.87-.06-4.88-.04V34.58Z" transform="translate(0.001)"/><path class="cls-1" d="M347.569,31.09l-1.65.05-.06,5.15-.03,5.16h-10.6l-.03-5.16-.06-5.15-1.67-.05a7.907,7.907,0,0,0-1.82.07c-.08.07-.13,5.46-.13,11.97,0,8.94.05,11.87.22,12.04a6.144,6.144,0,0,0,3.14.04c.33-.19.35-.45.35-5.21V44.99h10.6v5.09c0,5.81-.17,5.31,1.85,5.31.91,0,1.36-.07,1.56-.3.27-.26.3-1.59.3-11.93,0-6.41-.07-11.76-.15-11.89C349.279,31.1,348.779,31.05,347.569,31.09Z" transform="translate(0.001)"/><path class="cls-2" d="M285.739,42.69l-5.01-11.67h-1.79c-1.69,0-1.8.02-1.99.41-1.45,3.18-9.92,23.08-9.92,23.28,0,.49.63.69,2.1.69.95,0,1.46-.07,1.61-.26.11-.13.91-1.88,1.76-3.85l1.57-3.61,4.82-.06,4.82-.03,1.64,3.79a22.791,22.791,0,0,0,1.91,3.91,9.7,9.7,0,0,0,3.19-.05.688.688,0,0,0,.26-.51C290.709,54.51,288.479,49.1,285.739,42.69Zm-6.93,1.32-3.14-.05,1.58-3.76a21.8,21.8,0,0,1,1.73-3.63c.07.07.8,1.75,1.64,3.74a36.365,36.365,0,0,1,1.43,3.67C282.009,44.03,280.559,44.03,278.809,44.01Z" transform="translate(0.001)"/><path class="cls-2" d="M266.189,51.96l-1.06-.06-1.04-.05-.48-1.16c-.28-.63-2.2-5.3-4.26-10.36l-3.78-9.22-1.81-.05c-1.34-.04-1.84.02-1.9.19-.05.13-1.97,4.8-4.26,10.38l-4.17,10.14-1.08.1-1.1.09-.05,3.61c-.04,2.49.02,3.69.17,3.85a5.587,5.587,0,0,0,3.29.04,5.125,5.125,0,0,0,.22-2.14V55.4h17.68v1.92a5.04,5.04,0,0,0,.23,2.14,7.179,7.179,0,0,0,3.27.08c.17-.14.23-1.03.19-3.88Zm-9.3-.13c-1.68.02-4.47.02-6.2,0l-3.14-.06,3.08-7.57c2.18-5.34,3.13-7.48,3.24-7.26.08.17,1.47,3.57,3.11,7.58l2.96,7.25Z" transform="translate(0.001)"/><path class="cls-2" d="M235.389,42.84c-2.68-6.25-4.91-11.46-4.97-11.59-.07-.15-.63-.23-1.9-.23H226.7l-4.99,11.58c-2.73,6.38-5.02,11.72-5.06,11.89-.17.63.45.91,1.97.91,1.73,0,1.73,0,2.72-2.32.39-.93,1.08-2.53,1.53-3.6l.83-1.89h9.61l1.62,3.76a32.97,32.97,0,0,0,1.82,3.9,6.175,6.175,0,0,0,1.66.15c1.5,0,2.14-.29,1.95-.91C240.309,54.32,238.069,49.08,235.389,42.84Zm-6.88,1.21a17.275,17.275,0,0,1-3.17-.15c0-.17,2.89-6.98,3.09-7.33.09-.13.19-.09.28.15.07.18.76,1.86,1.54,3.7s1.42,3.41,1.42,3.48A16.132,16.132,0,0,1,228.509,44.05Z" transform="translate(0.001)"/><path class="cls-2" d="M203.829,31.02c-1.66,0-1.77.02-1.92.41-.09.24-2.36,5.49-5.03,11.67-2.68,6.2-4.85,11.41-4.85,11.58a.734.734,0,0,0,.35.54,6.319,6.319,0,0,0,3.24-.06,25.9,25.9,0,0,0,1.84-3.85l1.56-3.63,4.82-.06,4.84-.03,1.57,3.66a26.051,26.051,0,0,0,1.86,3.91,6.081,6.081,0,0,0,3.33.02.883.883,0,0,0,.22-.58c0-.35-9.58-22.91-9.92-23.35C205.629,31.1,205,31.02,203.829,31.02Zm-.04,12.99-3.17-.05,1.61-3.76a21.76,21.76,0,0,1,1.73-3.63c.07.07.8,1.75,1.63,3.74a37.9,37.9,0,0,1,1.44,3.68C206.989,44.03,205.539,44.03,203.789,44.01Z" transform="translate(0.001)"/><path class="cls-2" d="M190.819,31.11l-2.27-.05c-2.2-.06-2.27-.04-2.5.37-.13.24-1.92,4.36-3.98,9.14l-3.76,8.71-1.32-3.03c-.73-1.68-2.5-5.75-3.93-9.09l-2.6-6.05-2.31-.05a16.3,16.3,0,0,0-2.42.07c-.08.08-.13,5.48-.13,12.01,0,11.56.02,11.89.35,12.08a6.181,6.181,0,0,0,3.15-.04c.16-.17.22-2.38.22-8.8l.02-8.56,3.68,8.61c2.03,4.75,3.8,8.71,3.95,8.81a5.078,5.078,0,0,0,2.74-.06c.11-.11,1.82-3.98,3.79-8.58l3.59-8.39.1,8.43c.07,7.2.13,8.43.37,8.58a7.674,7.674,0,0,0,3.13.03c.18-.13.22-2.68.18-12.15Z" transform="translate(0.001)"/><path class="cls-2" d="M163.089,31.11l-1.72-.05-1.71-.06-.8,1.12c-.45.6-3.22,4.62-6.2,8.9l-5.39,7.81-.1-8.86-.09-8.86-1.68-.05a7.9,7.9,0,0,0-1.82.07c-.07.08-.13,5.48-.13,11.99,0,8.95.06,11.89.22,12.06a5.617,5.617,0,0,0,3.37-.06c.15-.14,2.98-4.18,6.29-8.97l6.03-8.71.06,8.75c.04,7.97.07,8.77.35,8.97a5.133,5.133,0,0,0,3.2-.02c.15-.16.19-3.51.17-12.13Z" transform="translate(0.001)"/><path class="cls-2" d="M150.429,30.18a4.627,4.627,0,0,0,2.87.56,5.574,5.574,0,0,0,2.71-.43,4.548,4.548,0,0,0,2.81-3.53c.15-.91-.18-1.16-1.6-1.16-1.19,0-1.6.21-1.73.92-.17.8-.91,1.22-2.18,1.22s-2.01-.42-2.17-1.22a1.142,1.142,0,0,0-.45-.73,4.3,4.3,0,0,0-2.66.06c-.32.24-.34.33-.11,1.22A4.529,4.529,0,0,0,150.429,30.18Z" transform="translate(0.001)"/><path class="cls-2" d="M139.779,31.06l-1.76.05-2.93,6.56c-1.6,3.61-2.94,6.57-2.99,6.57s-1.62-2.96-3.48-6.57l-3.39-6.56-1.86-.05c-1.73-.04-1.86-.02-1.98.33-.09.28,1.07,2.65,4.27,8.83l4.39,8.43-1.3,2.92a33.188,33.188,0,0,0-1.31,3.18.693.693,0,0,0,.36.47,6.24,6.24,0,0,0,3.22-.06c.46-.37,10.77-23.39,10.64-23.8C141.569,31.04,141.379,31.02,139.779,31.06Z" transform="translate(0.001)"/><path class="cls-2" d="M120.089,31.11l-6.9-.05c-3.8-.02-6.95.02-7.02.09a5.587,5.587,0,0,0-.13,1.57c0,1.24.06,1.48.35,1.65a12.075,12.075,0,0,0,2.61.19h2.25V44.79c0,9.92.02,10.24.35,10.43a6.178,6.178,0,0,0,3.15-.04c.17-.17.22-2.74.22-10.42V34.56h2.29c2.94,0,2.96,0,2.89-1.96Z" transform="translate(0.001)"/><path class="cls-2" d="M39.539,3.8A38.583,38.583,0,0,0,.9,42.44a37.845,37.845,0,0,0,7.17,22.48c.37.49.73.97,1.09,1.46a38.548,38.548,0,0,0,60.76,0c.36-.49.73-.97,1.09-1.46A38.685,38.685,0,0,0,39.539,3.8Zm0,73.15a34.319,34.319,0,0,1-26.37-12.27c7.17-2.56,16.41-4.01,26.37-4.01a82.708,82.708,0,0,1,24.98,3.54c.47.15.93.31,1.39.47A34.505,34.505,0,0,1,39.539,76.95Zm27.95-14.46c-.42-.23-.85-.45-1.29-.67a53.477,53.477,0,0,0-14.66-4.45,74.229,74.229,0,0,0-12-.96,73.128,73.128,0,0,0-13.95,1.31,47.552,47.552,0,0,0-14.12,4.89,34.886,34.886,0,0,1-6.44-20.05,34.45,34.45,0,0,1,68.9-.12A33.5,33.5,0,0,1,67.489,62.49Z" transform="translate(0.001)"/><polygon class="cls-2" points="47.2 35.15 48.66 44.26 30.43 44.26 32.01 35.15 28.24 35.15 24.6 56.41 25.31 56.27 28.36 55.68 29.7 48.15 49.51 48.15 50.72 55.81 51.76 55.97 54.61 56.41 50.84 35.15 47.2 35.15"/><polygon class="cls-2" points="33.71 24.58 37.6 24.58 37.6 40.62 41.36 40.62 41.36 24.58 45.37 24.58 46.59 31.75 50.24 31.75 48.41 20.93 44.77 20.93 30.79 20.81 28.85 31.75 32.62 31.75 33.71 24.58"/></svg>