<svg id="Layer_1" data-name="Layer 1" xmlns="http://www.w3.org/2000/svg" viewBox="0 0 352.786 77.101"><defs><style>.cls-1,.cls-2{fill:#fce152;}.cls-2{stroke:#fce152;stroke-miterlimit:10;stroke-width:1.5px;}</style></defs><title>logo-footer_eng1</title><path class="cls-1" d="M108.853,26.981l-6.587-.042c-3.631,0-6.629,0-6.714.084a4.431,4.431,0,0,0-.127,1.478c0,1.182.042,1.436.338,1.6a12.733,12.733,0,0,0,2.491.169h2.153v9.8c0,9.5,0,9.8.338,9.965a5.96,5.96,0,0,0,3-.042c.169-.169.211-2.618.211-9.965V30.274h2.2c2.829,0,2.829,0,2.745-1.858Z" transform="translate(0 0)"/><path class="cls-1" d="M147.685,26.939,146,26.981l-2.787,6.249c-1.52,3.462-2.829,6.291-2.871,6.291S138.776,36.692,137,33.23l-3.251-6.249-1.773-.042c-1.647-.042-1.773,0-1.9.338-.084.253,1.013,2.533,4.1,8.445l4.18,8.065-1.267,2.787c-.676,1.52-1.267,2.913-1.267,3.04a.818.818,0,0,0,.338.464,6.31,6.31,0,0,0,3.082-.042c.464-.338,10.3-22.378,10.176-22.758C149.374,26.939,149.2,26.9,147.685,26.939Z" transform="translate(0 0)"/><path class="cls-1" d="M176.453,26.981l-2.153-.042c-2.111-.042-2.153-.042-2.365.338-.127.211-1.816,4.18-3.8,8.74l-3.589,8.318-1.267-2.913c-.676-1.6-2.365-5.489-3.758-8.7l-2.491-5.785-2.2-.042a12.707,12.707,0,0,0-2.322.084c-.084.084-.127,5.236-.127,11.485,0,11.063,0,11.358.338,11.569a5.96,5.96,0,0,0,3-.042c.169-.169.211-2.28.211-8.4V33.4l3.5,8.234c1.942,4.518,3.631,8.318,3.758,8.4a4.991,4.991,0,0,0,2.618-.042c.127-.127,1.731-3.8,3.631-8.191l3.42-8.022.084,8.065c.084,6.882.127,8.065.338,8.191a7.957,7.957,0,0,0,3,.042c.169-.127.211-2.576.169-11.611Z" transform="translate(0 0)"/><path class="cls-1" d="M190.909,26.9c-1.6,0-1.689,0-1.816.38-.084.211-2.28,5.236-4.813,11.147-2.576,5.911-4.645,10.894-4.645,11.063a.694.694,0,0,0,.338.507,6.31,6.31,0,0,0,3.082-.042,24.417,24.417,0,0,0,1.773-3.673l1.478-3.462,4.6-.042,4.645-.042,1.478,3.5A25.137,25.137,0,0,0,198.8,49.99a5.764,5.764,0,0,0,3.167,0,.8.8,0,0,0,.211-.549c0-.338-9.163-21.914-9.5-22.336C192.64,26.981,192.049,26.9,190.909,26.9Zm3.082,12.41c-.042.042-1.436.042-3.082,0l-3.04-.042,1.52-3.589a24.3,24.3,0,0,1,1.647-3.462c.084.084.76,1.689,1.562,3.589S194.034,39.268,193.991,39.31Z" transform="translate(0 0)"/><path class="cls-1" d="M222.1,38.212c-2.576-6-4.687-10.978-4.771-11.1s-.591-.211-1.816-.211h-1.733L209.01,37.964c-2.618,6.122-4.813,11.231-4.856,11.358-.169.591.422.887,1.9.887,1.647,0,1.647,0,2.618-2.238.38-.887,1.013-2.407,1.478-3.42l.8-1.816h9.2l1.562,3.589c.844,1.985,1.647,3.673,1.731,3.758a5.926,5.926,0,0,0,1.6.127c1.436,0,2.027-.3,1.858-.887C226.786,49.19,224.674,44.166,222.1,38.212Zm-6.587,1.14a23.326,23.326,0,0,1-3.04-.127c0-.169,2.745-6.671,2.956-7.009q.127-.19.253.127c.084.169.718,1.773,1.478,3.547s1.351,3.251,1.351,3.336a15.554,15.554,0,0,1-3,.124Z" transform="translate(0 0)"/><path class="cls-1" d="M262.462,26.9h-1.689c-1.6,0-1.731,0-1.9.38-1.393,3.04-9.5,22.083-9.5,22.252,0,.464.591.676,2.027.676q1.33,0,1.52-.253c.127-.127.887-1.816,1.689-3.673l1.478-3.462,4.6-.042,4.6-.042,1.562,3.631a27.987,27.987,0,0,0,1.816,3.758,9.131,9.131,0,0,0,3.04-.042.643.643,0,0,0,.253-.464c0-.211-2.111-5.362-4.771-11.527ZM260.6,39.35l-3-.042,1.52-3.589a24.3,24.3,0,0,1,1.647-3.462c.042.084.76,1.689,1.562,3.589a32.824,32.824,0,0,1,1.351,3.5Z" transform="translate(0 0)"/><path class="cls-1" d="M312.779,30.316h4.6c3.42,0,4.687-.042,4.9-.211.253-.169.3-.464.253-1.647l-.042-1.436-6.5-.042c-6.376-.042-6.5-.042-6.714.338-.127.211-.169,3.842-.127,11.443.042,9.669.084,11.147.338,11.274.422.3,12.456.211,12.878-.042.253-.169.3-.464.253-1.647l-.042-1.436-4.813-.042-4.856-.042V40.239H317.3c3.293,0,4.476-.042,4.729-.211s.3-.464.253-1.647l-.042-1.436L317.6,36.9l-4.687-.042V30.316Z" transform="translate(0 0)"/><path class="cls-1" d="M352.717,27.023l-6.587-.042c-3.631,0-6.629,0-6.714.084a4.433,4.433,0,0,0-.127,1.478c0,1.182.042,1.436.338,1.562a12.733,12.733,0,0,0,2.491.169h2.153v9.754c0,9.458,0,9.754.338,9.965a5.96,5.96,0,0,0,3-.042c.169-.169.211-2.618.211-9.965V30.232h2.2c2.787,0,2.829,0,2.745-1.858Z" transform="translate(0 0)"/><circle class="cls-1" cx="278.887" cy="38.55" r="3.758"/><path class="cls-1" d="M38.509,0A38.437,38.437,0,0,0,0,38.366H0v.142A37.611,37.611,0,0,0,7.137,60.886c.38.464.718.971,1.1,1.436a38.4,38.4,0,0,0,60.549,0c.38-.464.718-.971,1.1-1.436A38.544,38.544,0,0,0,38.509,0Zm0,72.878A34.164,34.164,0,0,1,12.246,60.633c7.136-2.533,16.341-4.011,26.263-4.011a80.055,80.055,0,0,1,26.263,4.011A34.3,34.3,0,0,1,38.509,72.878Zm27.868-14.4C59.7,54.85,49.656,52.442,38.551,52.442c-11.274,0-21.323,2.407-27.952,6.165A34.321,34.321,0,1,1,72.794,38.284v.224a33.472,33.472,0,0,1-6.418,19.971Z" transform="translate(0 0)"/><polygon class="cls-1" points="32.724 20.69 36.567 20.69 36.567 36.692 40.324 36.692 40.324 20.69 44.336 20.69 45.56 27.868 49.191 27.868 47.376 17.058 43.745 17.058 29.811 16.974 27.869 27.868 31.626 27.868 32.724 20.69"/><polygon class="cls-1" points="46.151 31.245 47.587 40.323 29.431 40.323 30.993 31.245 27.277 31.245 23.646 52.442 27.362 51.682 28.713 44.208 48.431 44.208 49.656 51.808 53.54 52.442 49.783 31.245 46.151 31.245"/><path class="cls-2" d="M112.106,27.737h2.207V40.913c0,1.013,0,1.935.092,2.948a5.815,5.815,0,0,0,.737,2.119,4.117,4.117,0,0,0,1.843,1.474,5.772,5.772,0,0,0,2.487.553,5.466,5.466,0,0,0,2.119-.461,4.5,4.5,0,0,0,1.659-1.29,4.875,4.875,0,0,0,1.013-1.935,14.129,14.129,0,0,0,.185-3.409V27.737h2.211V40.913a13.693,13.693,0,0,1-.553,4.7,6.109,6.109,0,0,1-2.3,3.133,6.184,6.184,0,0,1-4.144,1.29,8.022,8.022,0,0,1-4.515-1.29,6.05,6.05,0,0,1-2.487-3.317,15.348,15.348,0,0,1-.369-4.607Z" transform="translate(0 0)"/><path class="cls-2" d="M230.049,49.431V27.565h4.565a22.512,22.512,0,0,1,7.13.761,9.534,9.534,0,0,1,4.944,3.9,11.611,11.611,0,0,1,1.807,6.558,12.455,12.455,0,0,1-1.426,5.8,8.723,8.723,0,0,1-3.708,3.708,13.409,13.409,0,0,1-6.37,1.236Zm2.092-2.092h2.571a23.4,23.4,0,0,0,6.275-.571,7.38,7.38,0,0,0,3.9-2.852,8.937,8.937,0,0,0,1.426-5.134,9.2,9.2,0,0,0-1.521-5.419,7.653,7.653,0,0,0-4.278-3.042,26.687,26.687,0,0,0-6.753-.666h-1.523Z" transform="translate(0 0)"/><path class="cls-2" d="M288.35,49.69V27.737h.477l14.6,16.8v-16.8h2.2V49.69h-.477L290.64,33.082V49.69Z" transform="translate(0 0)"/><path class="cls-2" d="M325.314,27.737h11.063v2.138h-8.831v6.88h8.831v2.138h-8.831V49.769h-2.231Z" transform="translate(0 0)"/></svg>