<?xml version="1.0" encoding="utf-8"?>
<!-- Generator: Adobe Illustrator 20.1.0, SVG Export Plug-In . SVG Version: 6.00 Build 0)  -->
<svg version="1.1" id="Layer_1" xmlns="http://www.w3.org/2000/svg" xmlns:xlink="http://www.w3.org/1999/xlink" x="0px" y="0px"
	 viewBox="0 0 65 85" style="enable-background:new 0 0 65 85;" xml:space="preserve">
<style type="text/css">
	.st0{fill:#FCE152;}
</style>
<g>
	<path class="st0" d="M32.7,10.7c-17.6,0-31.8,14.2-31.8,31.8C0.9,49.4,3,55.8,6.8,61c0.3,0.4,0.6,0.8,0.9,1.2
		c5.8,7.4,14.9,12.2,25,12.2c10.2,0,19.2-4.8,25-12.2c0.3-0.4,0.6-0.8,0.9-1.2c3.7-5.2,5.9-11.6,5.9-18.5
		C64.5,24.9,50.2,10.7,32.7,10.7z M32.7,70.9C24,70.9,16.2,67,11,60.8c5.9-2.1,13.5-3.3,21.7-3.3c8.2,0,15.7,1.2,21.7,3.3
		C49.1,67,41.4,70.9,32.7,70.9z M55.7,59C50.2,56,41.9,54,32.7,54c-9.3,0-17.6,2-23.1,5.1c-3.3-4.7-5.3-10.4-5.3-16.5
		c0-15.7,12.7-28.4,28.4-28.4S61,26.8,61,42.5C61,48.7,59.1,54.4,55.7,59z"/>
	<polygon class="st0" points="27,33.7 27.9,27.8 31.1,27.8 31.1,41 34.2,41 34.2,27.8 37.5,27.8 37.5,27.8 38.5,33.7 41.5,33.7 
		40,24.8 37,24.8 25.5,24.7 23.9,33.7 27,33.7 	"/>
	<polygon class="st0" points="39,36.5 40.2,44 25.2,44 26.5,36.5 26.5,36.5 23.4,36.5 20.4,54 23.5,53.4 24.6,47.2 40.9,47.2 
		41.9,53.5 45.1,54 42,36.5 	"/>
</g>
</svg>
