<?xml version="1.0" encoding="utf-8"?>
<!-- Generator: Adobe Illustrator 20.1.0, SVG Export Plug-In . SVG Version: 6.00 Build 0)  -->
<svg version="1.1" id="Layer_1" xmlns="http://www.w3.org/2000/svg" xmlns:xlink="http://www.w3.org/1999/xlink" x="0px" y="0px"
	 viewBox="0 0 63.6 63.7" style="enable-background:new 0 0 63.6 63.7;" xml:space="preserve">
<style type="text/css">
	.st0{fill:#F7F7F7;}
</style>
<g>
	<path class="st0" d="M31.8,0C14.2,0,0,14.2,0,31.8c0,6.9,2.1,13.3,5.9,18.5c0.3,0.4,0.6,0.8,0.9,1.2c5.8,7.4,14.9,12.2,25,12.2
		c10.2,0,19.2-4.8,25-12.2c0.3-0.4,0.6-0.8,0.9-1.2c3.7-5.2,5.9-11.6,5.9-18.5C63.6,14.2,49.3,0,31.8,0z M31.8,60.2
		c-8.7,0-16.5-3.9-21.7-10.1c5.9-2.1,13.5-3.3,21.7-3.3s15.7,1.2,21.7,3.3C48.2,56.3,40.5,60.2,31.8,60.2z M54.8,48.3
		c-5.5-3-13.8-5-23-5c-9.3,0-17.6,2-23.1,5.1C5.4,43.7,3.4,38,3.4,31.9c0-15.7,12.7-28.4,28.4-28.4s28.3,12.6,28.3,28.3
		C60.1,38,58.2,43.7,54.8,48.3z"/>
	<polygon class="st0" points="26.1,23 27,17.1 30.2,17.1 30.2,30.3 33.3,30.3 33.3,17.1 36.6,17.1 36.6,17.1 37.6,23 40.6,23 
		39.1,14.1 36.1,14.1 24.6,14 23,23 	"/>
	<polygon class="st0" points="38.1,25.8 39.3,33.3 24.3,33.3 25.6,25.8 25.6,25.8 22.5,25.8 19.5,43.3 22.6,42.7 23.7,36.5 40,36.5 
		41,42.8 44.2,43.3 41.1,25.8 	"/>
</g>
</svg>
